<svg xmlns="http://www.w3.org/2000/svg" viewBox="0 0 50 50" width="50" height="50" preserveAspectRatio="xMidYMid meet" style="width: 100%; height: 100%; transform: translate3d(0px, 0px, 0px); content-visibility: visible;"><defs><clipPath id="__lottie_element_2"><rect width="50" height="50" x="0" y="0"></rect></clipPath></defs><g clip-path="url(#__lottie_element_2)"><g transform="matrix(1,0,0,1,0,0)" opacity="1" style="display: block;"><g opacity="1" transform="matrix(1,0,0,1,0,0)"><path stroke-linecap="round" stroke-linejoin="miter" fill-opacity="0" stroke-miterlimit="10" stroke="rgb(0,0,0)" stroke-opacity="1" stroke-width="2" d=" M25,22 C25,22 25,28 25,28 M31,17 C31,17 31,33 31,33 M37,7 C37,7 37,43 37,43 M43,16 C43,16 43,34 43,34 M7,16 C7,16 7,34 7,34 M13,7 C13,7 13,43 13,43 M19,17 C19,17 19,33 19,33 M49,22 C49,22 49,28 49,28 M1,22 C1,22 1,28 1,28"></path></g></g></g></svg>